<svg xmlns="http://www.w3.org/2000/svg" viewBox="0 0 1624.52 666.79"><g id="圖層_2" data-name="圖層 2"><g id="圖層_5" data-name="圖層 5"><path d="M512.31,122.62c-12.43,62-34.06,122.53-65.92,177.76a515.2,515.2,0,0,1-55.05,78.16l-3.87,4.58-1.93,2.29c-.67.75-1.36,1.47-2,2.21l-8.17,8.78-4.09,4.39c-1.37,1.45-2.69,3-4.14,4.34l-8.54,8.45c-11.48,11.15-23.53,21.7-35.93,31.78s-25.19,19.69-38.34,28.79-26.58,17.77-40.35,25.92-27.85,15.81-42.29,22.84A478.85,478.85,0,0,1,157.28,542a308.79,308.79,0,0,1-47,13.45,190.24,190.24,0,0,1-24.73,3.27,126.15,126.15,0,0,1-25.69-.79A94.08,94.08,0,0,1,46.83,555,69.41,69.41,0,0,1,34,549.76a57.61,57.61,0,0,1-11.7-8.19,61.43,61.43,0,0,1-9.4-10.87A74.37,74.37,0,0,1,2.55,505.3a103.19,103.19,0,0,1-2-13C.15,488,0,483.74,0,479.51c0-16.95,2.59-33.31,6-49.15l1.29-5.9.65-2.92.33-1.45.38-1.51,1.53-6,.77-3,.39-1.5.47-1.49,1.88-6,.95-3c.3-1,.63-2,1-2.95,1.53-3.88,3-7.81,4.58-11.65C26.71,367.6,35.4,353.31,45,340l3.59-5c.59-.85,1.22-1.65,1.86-2.44l1.92-2.39L60,320.59l8.06-9.12,4-4.56,4.2-4.37,8.39-8.73c1.38-1.48,2.86-2.84,4.29-4.25l4.34-4.19c2.89-2.78,5.77-5.6,8.68-8.36l8.89-8.07c3-2.68,5.92-5.41,8.92-8l9.08-7.81,9.09-7.8,9.25-7.56c12.26-10.19,24.87-19.86,37.42-29.61,12.7-9.53,25.36-19.12,38.22-28.4s25.82-18.44,38.88-27.45,26.25-17.8,39.52-26.49c6.61-4.37,13.32-8.6,20-12.89s13.38-8.5,20.13-12.65,13.5-8.32,20.3-12.39,13.58-8.17,20.43-12.15c27.32-16,55.1-31.41,83.1-46a72.08,72.08,0,0,1,23.74-8,60.83,60.83,0,0,1,12.5-.59,51.53,51.53,0,0,1,6.2.54,54.55,54.55,0,0,1,6.1,1.12,71.44,71.44,0,0,1,22.4,9.63,78.73,78.73,0,0,1,9.63,7.25,76.09,76.09,0,0,1,8.4,8.54h0l-.51-.14c9.55-5.6,19.74-9.41,30.1-12.62,5.19-1.55,10.37-3.17,15.59-4.66L615,26.38q31.44-8.49,63.6-14.31c10.68-2.05,21.46-3.59,32.23-5.2l16.21-2,4-.49c1.35-.15,2.71-.26,4.07-.4l8.13-.76C754.17,2,765.06,1.57,775.93.84c5.45-.26,10.9-.36,16.34-.55L800.45,0l8.17,0H825l16.35.48,8.18.24,8.16.48,16.33,1q32.64,2.4,65,7.75c21.52,3.52,42.85,8.2,63.93,13.72,10.52,2.83,21,5.82,31.38,9.08,5.18,1.66,10.37,3.29,15.52,5.06a27.63,27.63,0,0,1,7.34,3.85,23.73,23.73,0,0,1,6.33,6.89h0l-.41,0A43.18,43.18,0,0,1,1074,39.26a54,54,0,0,1,13.15-5.83,86.09,86.09,0,0,1,28.77-3.64,83.35,83.35,0,0,1,14.47,2q3.59.8,7.09,1.94c1.16.39,2.37.81,3.48,1.25l3.21,1.3,25.7,10.42c34,14.54,67.15,30.9,99.52,48.72S1333.28,132.5,1364,153c15.32,10.33,30.56,20.8,45.46,31.75l5.61,4.08,5.56,4.15c3.69,2.79,7.43,5.52,11.08,8.37s7.36,5.63,11,8.53l5.46,4.34,2.72,2.2.68.55.34.28,0,0h0a1.64,1.64,0,0,0-.13.19l1.81,1.2c17.43,14.62,34.62,29.56,51.37,45.14,8.32,7.85,16.63,15.74,24.64,24s15.92,16.67,23.41,25.56a339.11,339.11,0,0,1,21.28,27.75c3.32,4.81,6.47,9.71,9.55,14.63,1.69,2.75,3.08,5.27,4.52,7.9s2.8,5.2,4.08,7.84a321.15,321.15,0,0,1,14,32.25c1,2.76,2,5.49,3,8.28l2.72,8.37c.89,2.8,1.63,5.64,2.45,8.46l1.2,4.25,1,4.29c.67,2.86,1.39,5.72,2,8.6l1.66,8.7c.26,1.45.59,2.89.79,4.36l.61,4.39c.39,2.94.85,5.86,1.18,8.81l.76,8.87.35,4.44.12,4.47.22,8.94c0,3-.06,6-.27,9.22a67.87,67.87,0,0,1-4.08,20,51.5,51.5,0,0,1-5,9.79c-.51.77-1.05,1.52-1.58,2.27s-1.15,1.44-1.72,2.16a52.81,52.81,0,0,1-3.71,4.06,58.6,58.6,0,0,1-17.71,11.67,76.81,76.81,0,0,1-9.48,3.38c-3.17.86-6.34,1.63-9.47,2.15a125.65,125.65,0,0,1-18.6,1.83c-6.1.19-12.12.06-18.06-.3-11.87-.71-23.42-2.19-34.74-3.83a366.51,366.51,0,0,1-68.12-16.78,399.5,399.5,0,0,1-63.73-28.79c-10.19-5.66-20.1-11.8-29.77-18.26-4.81-3.28-9.6-6.51-14.24-10l-13.94-10.39A517.33,517.33,0,0,1,1258.43,431,498.77,498.77,0,0,1,1213.59,378a557.72,557.72,0,0,1-37.35-58.1l-4.18-7.52-4.06-7.55c-2.67-5.05-5.33-10.05-7.89-15.22-1.28-2.56-2.59-5.12-3.85-7.69l-3.71-7.77c-2.52-5.15-4.77-10.43-7.13-15.65a581,581,0,0,1-23.62-64.4,521.62,521.62,0,0,1-15.47-66.51l1-.24c3.58,10.77,7.26,21.46,11.19,32.05s8.06,21.07,12.39,31.45,8.95,20.62,13.67,30.79l3.61,7.59,3.74,7.53,1.85,3.77,1.93,3.73,3.85,7.46c5.33,9.84,10.6,19.69,16.35,29.27,2.81,4.79,5.72,9.65,8.63,14.45l4.38,7.17,4.45,7.1a647.07,647.07,0,0,0,38.27,54.61,536.84,536.84,0,0,0,93.57,93.54l13.32,9.84c4.42,3.3,9,6.38,13.59,9.45,9.17,6.08,18.51,11.88,28.12,17.2a383.92,383.92,0,0,0,59.87,27,346.89,346.89,0,0,0,63.49,15.82c11.07,1.67,22,3.1,32.71,3.8,5.36.35,10.67.48,15.87.35a106.39,106.39,0,0,0,15.18-1.37c9.77-1.58,18.45-5,24.19-10.55.67-.73,1.42-1.39,2-2.18.3-.39.65-.75.94-1.15l.86-1.2a26.77,26.77,0,0,0,2.74-5.26,44.93,44.93,0,0,0,2.7-13.12c.19-2.46.3-5.06.31-7.73l-.11-8-.06-4-.28-4-.59-8.05c-.27-2.67-.67-5.35-1-8l-.51-4c-.16-1.34-.46-2.67-.68-4l-1.42-8c-.54-2.65-1.17-5.3-1.75-8l-.88-4-1.06-3.95c-.72-2.62-1.36-5.26-2.14-7.87l-2.41-7.82c-.81-2.6-1.76-5.16-2.64-7.74A302.41,302.41,0,0,0,1573,381.13c-1.15-2.47-2.41-4.86-3.64-7.27s-2.56-4.81-3.8-6.9c-2.86-4.71-5.75-9.38-8.79-13.93q-9.11-13.66-19.57-26.46c-6.93-8.55-14.33-16.82-22-24.92s-15.54-16-23.53-23.84c-16.1-15.57-32.8-30.65-49.73-45.51l1.81,1.2c-.94-.63-1.87-1.31-2.76-2l-1.58-1.33-2.59-2.18-5.24-4.35c-3.48-2.92-7.05-5.75-10.59-8.61s-7.16-5.65-10.74-8.48l-5.39-4.21-5.44-4.14c-14.48-11.13-29.31-21.8-44.23-32.34q-44.9-31.44-92.35-59c-31.63-18.31-64.09-35.19-97.36-50.29l-25.17-10.84-3.14-1.35c-1-.43-2-.79-3-1.15-2-.7-4.07-1.31-6.16-1.83a74,74,0,0,0-12.76-2A76.8,76.8,0,0,0,1089.62,42c-4.19,1.19-8.37,2.5-12.66,3.78s-8.62,2.63-13.38,3.62l-.42.05h0a24.26,24.26,0,0,1-9.1,2c-.7,0-1.41,0-2.09,0s-1.39-.06-2.06-.14a31,31,0,0,1-4-.72c-5.16-1.41-10.36-2.69-15.55-4-10.38-2.58-20.81-4.93-31.25-7.19-20.92-4.39-41.91-8.29-63-11.4l-7.91-1.16c-2.64-.38-5.29-.71-7.93-1.07-5.28-.74-10.58-1.37-15.87-2s-10.6-1.16-15.9-1.75-10.62-1-15.94-1.43l-16-1.12-8-.55-8-.31-16-.64-16-.17-8-.09-8,.13-16,.27c-10.66.46-21.34.75-32,1.54-10.67.55-21.3,1.63-32,2.5l-15.94,1.72c-5.33.51-10.62,1.26-15.93,1.94C659.57,28.65,638.4,32,617.37,36.3l-15.74,3.35c-5.24,1.15-10.46,2.43-15.69,3.64s-10.44,2.54-15.77,3.47A130,130,0,0,1,554,49l-.35,0-.17-.16h0a83.68,83.68,0,0,0-19.08-13.39,68.56,68.56,0,0,0-21.7-7l-2.81-.33c-.47-.05-.93-.14-1.4-.15l-1.41-.05a45.83,45.83,0,0,0-5.62,0,54.88,54.88,0,0,0-11.06,1.46A63.51,63.51,0,0,0,470,38q-40.36,24.92-79.8,50.78-79,51.84-154.55,108.33c-12.61,9.4-25,19.06-37.47,28.6-12.3,9.73-24.69,19.38-36.71,29.39-24.13,19.91-47.67,40.49-69,62.82l-4,4.17-3.82,4.3L77,335l-7.18,8.91-1.79,2.22c-.61.74-1.2,1.49-1.73,2.27L63,353c-8.9,12.25-16.79,25.08-22.66,38.76-1.47,3.42-2.75,6.91-4.15,10.37-.36.85-.65,1.74-.93,2.63l-.86,2.66-1.72,5.33-.43,1.33-.36,1.36-.71,2.72-1.42,5.45L29.41,425l-.33,1.44-.66,2.85-1.27,5.67c-3.26,15-5.71,30-5.88,44.69,0,3.66.06,7.29.37,10.84a82,82,0,0,0,1.48,10.44,53.69,53.69,0,0,0,7.15,18.31,37.6,37.6,0,0,0,13.59,12.49,50.17,50.17,0,0,0,9,3.85,74.63,74.63,0,0,0,10,2.33,106.92,106.92,0,0,0,21.57.93,171.48,171.48,0,0,0,22.24-2.64,299.43,299.43,0,0,0,44.22-12c29.12-10.17,57.3-23.67,84.45-39a660.38,660.38,0,0,0,78-51.62c12.35-9.53,24.35-19.51,35.8-30.07l8.54-8c1.45-1.3,2.77-2.73,4.15-4.1l4.11-4.16,8.21-8.33c.68-.69,1.38-1.37,2.05-2.09l1.95-2.17,3.9-4.36,7.81-8.72,2-2.17,1.85-2.27,3.7-4.54,7.42-9.06c.61-.76,1.24-1.5,1.85-2.27l1.75-2.35,3.5-4.7,7-9.39c1.21-1.55,2.26-3.19,3.37-4.8l3.3-4.85,6.61-9.7,6.24-9.94,3.12-5c1-1.67,2.12-3.29,3.06-5l5.84-10.2c4-6.74,7.48-13.77,11.17-20.7,1.88-3.44,3.55-7,5.26-10.53L472,233.57c1.63-3.57,3.19-7.18,4.78-10.77s3.24-7.16,4.67-10.82l4.44-10.92,1.11-2.74,1-2.76,2.06-5.53,2.07-5.53,1-2.77,1-2.79L498,167.77q7.38-22.44,13.36-45.37Z"/><path d="M370.4,391.26a107.54,107.54,0,0,0-9.78,30.82c-.41,2.65-.63,5.32-.78,8a60.49,60.49,0,0,0,.2,8,44.09,44.09,0,0,0,4,15.09,38,38,0,0,0,4.1,6.56l1.2,1.52,1.32,1.41c.84.95,1.85,1.86,2.81,2.78A105,105,0,0,0,386,475.33a144.13,144.13,0,0,0,13.78,8.29c4.73,2.56,9.63,4.82,14.56,7,19.85,8.5,40.81,14.42,62,19.18,10.6,2.34,21.28,4.35,32,6.16,5.37.84,10.73,1.75,16.12,2.48l8.07,1.14,8.1,1c21.59,2.72,43.29,4.63,65,6.07s43.51,2.37,65.3,3q65.5,1.71,131,2.56l32.73.27,16.36,0c5.46,0,10.91,0,16.36,0q32.72,0,65.36-1.05c43.49-1.57,86.92-4.09,129.32-12.48,21.33-4.09,42.53-8.7,63.2-14.78,10.34-3,20.52-6.45,30.44-10.39,2.5-.95,4.93-2,7.39-3.05s4.87-2.13,7.25-3.3c4.82-2.22,9.47-4.72,14.05-7.32a156.92,156.92,0,0,0,13.15-8.57,112.87,112.87,0,0,0,11.79-10.1,79.73,79.73,0,0,0,9.81-11.83c1.47-2.1,2.72-4.31,4-6.56l3.48-7.09c4.32-9.57,7.52-19.74,8-30.21a52.79,52.79,0,0,0-1.36-15.63,50.77,50.77,0,0,0-2.51-7.53,35.86,35.86,0,0,0-4-6.9l.7-.72a37.78,37.78,0,0,1,9.11,14.09l.73,2,.37,1c.11.33.19.68.28,1,.36,1.37.78,2.74,1.08,4.13l.69,4.22a17.09,17.09,0,0,1,.22,2.13l.14,2.13.15,2.14c.06.72,0,1.43,0,2.14l-.1,4.29c-.06,1.43-.3,2.83-.46,4.24s-.3,2.85-.59,4.24l-.89,4.18-.46,2.09a17.67,17.67,0,0,1-.55,2l-1.26,4.07-.64,2a17.64,17.64,0,0,1-.69,2l-3.18,7.87a77.47,77.47,0,0,1-4,7.73l-1.1,1.89-1.21,1.8c-.83,1.19-1.58,2.45-2.49,3.57l-2.66,3.45-2.84,3.27a113.73,113.73,0,0,1-12.57,11.79,150.49,150.49,0,0,1-14,9.8,203.78,203.78,0,0,1-30.16,15c-10.35,4.21-20.9,7.77-31.52,10.91-21.25,6.32-42.8,11.07-64.36,15.27l-8.09,1.54-8.19,1.38c-2.74.44-5.46,1-8.2,1.33l-8.21,1.13c-5.47.81-11,1.35-16.44,2s-11,1.08-16.45,1.57c-21.94,1.86-43.88,2.92-65.81,3.49l-16.44.33-8.22.15-8.21.06-16.43.12-16.42,0q-8.22,0-16.42-.14l-16.41-.2-32.82-.62c-43.73-1-87.43-2.66-131.11-4.41-21.88-.9-43.76-2.16-65.61-3.92s-43.67-4-65.4-7.07L531.49,527l-8.14-1.27c-5.42-.82-10.82-1.82-16.23-2.74-10.8-2-21.57-4.18-32.27-6.7-21.37-5.15-42.58-11.44-62.78-20.48-5-2.32-10-4.72-14.85-7.46-2.45-1.31-4.81-2.78-7.19-4.21s-4.67-3-6.91-4.68a108.82,108.82,0,0,1-12.85-10.74c-1-1-2-1.94-2.93-3.08l-1.42-1.63-1.27-1.74a42.09,42.09,0,0,1-4.29-7.48,47.78,47.78,0,0,1-3.8-16.55,66.4,66.4,0,0,1,1.26-16.68c.54-2.73,1.2-5.42,2-8.07s1.66-5.27,2.65-7.85a100.55,100.55,0,0,1,7.06-14.91Z"/><path d="M364.38,457.74c-7.44.7-14.63,1-21.37,1.89a42,42,0,0,0-9.11,2,8.28,8.28,0,0,0-2.75,1.54c-.08.12-.25.22-.25.31s-.12.15-.09.21a.09.09,0,0,1,0,0l0,.05s0,.11,0,.19a8.27,8.27,0,0,0,.13,2.33,23.9,23.9,0,0,0,1,3.81c1,2.75,2.27,5.73,3.55,8.82s2.61,6.32,3.8,9.73c.61,1.7,1.18,3.45,1.71,5.27a56,56,0,0,1,1.37,5.7h0l.76,1-1.31-.21c-3.84-.62-7.61-1.38-11.38-2a69.74,69.74,0,0,0-11.29-.9A37.87,37.87,0,0,0,308.54,499a16.65,16.65,0,0,0-4.33,1.91,10.27,10.27,0,0,0-2.94,2.85,8.18,8.18,0,0,0-.52.86c-.13.31-.28.62-.44.92a15.79,15.79,0,0,0-.62,2.07,11.6,11.6,0,0,0-.11,4.24,20.67,20.67,0,0,0,4.07,8.74,59.29,59.29,0,0,0,7.38,8.11c2.74,2.59,5.7,5.05,8.73,7.51h0l1.56.17-1.75.78c-3.6,1.6-7.1,3-10.46,4.38A82.37,82.37,0,0,0,299.7,546c-2.79,1.67-5.18,3.55-6.27,5.48a6.21,6.21,0,0,0-.84,3.08,10.64,10.64,0,0,0,.67,3.68,19.91,19.91,0,0,0,5.29,7.21,46.44,46.44,0,0,0,8.31,5.89,88.43,88.43,0,0,0,19.83,8A120.86,120.86,0,0,0,348,583.18a97.47,97.47,0,0,0,21.54-.32c1.78-.22,3.48-.57,5.19-.9s3.43-.81,5.13-1.37,3.4-1.12,5.1-1.71,3.37-1.29,5-2a166,166,0,0,0,19.48-10.22,333.62,333.62,0,0,0,36.36-25.93l8.72-7.1,4.36-3.6,2.23-1.81c.76-.6,1.52-1.23,2.47-1.86a17.11,17.11,0,0,1,6.31-2.67,13.41,13.41,0,0,1,7.21.44,11.32,11.32,0,0,1,5.77,4.71,15.2,15.2,0,0,1,2.19,6.46c.05.54.16,1.08.16,1.61l0,1.58v.78l0,.73-.06,1.43c-.1,1.91-.23,3.8-.36,5.69L484,558.35c-.56,7.5-1,15-1.07,22.44a102.57,102.57,0,0,0,.43,11.11,70.31,70.31,0,0,0,2,10.9,108.51,108.51,0,0,0,7.87,21l-.87.49A108.89,108.89,0,0,1,483,603.48a74.42,74.42,0,0,1-2.68-11.19,107.66,107.66,0,0,1-1.06-11.43c-.33-7.61-.15-15.2.06-22.75l.35-11.29c.05-1.88.09-3.75.11-5.61v-2.08l0-.62-.06-1.25a11.36,11.36,0,0,0-.17-1.19,12.14,12.14,0,0,0-.55-2.25,8.33,8.33,0,0,0-.95-1.86,5.36,5.36,0,0,0-2.88-2.2c-2.33-.77-5.5,0-7.89,1.81-.6.43-1.28,1-2,1.61L463.22,535,459,538.75c-2.83,2.5-5.69,5-8.58,7.44a340.44,340.44,0,0,1-36.55,27.45,161.53,161.53,0,0,1-20.33,11.14c-1.76.83-3.59,1.53-5.4,2.29s-3.69,1.4-5.59,2-3.83,1.12-5.77,1.63-4,.86-5.92,1.12a105.78,105.78,0,0,1-23.57.72,123.33,123.33,0,0,1-23.11-4,98.06,98.06,0,0,1-22.05-8.76A55.71,55.71,0,0,1,292,572.65c-.79-.71-1.55-1.5-2.31-2.26s-1.48-1.62-2.13-2.56l-1-1.38-.9-1.49a12.93,12.93,0,0,1-.82-1.57c-.24-.55-.52-1.07-.72-1.65a19.89,19.89,0,0,1-1.33-7.37,16,16,0,0,1,2.09-7.71,18.94,18.94,0,0,1,5-5.57,27,27,0,0,1,5.82-3.29,38,38,0,0,1,12-2.67,37.35,37.35,0,0,1,11.86,1l-.19,1h0a48.24,48.24,0,0,1-11-4.67,42.94,42.94,0,0,1-9.77-7.5A24.35,24.35,0,0,1,292,513.27a18,18,0,0,1,0-7.3,19.69,19.69,0,0,1,1.05-3.48c.27-.57.55-1.13.84-1.69a16,16,0,0,1,6.68-6.41,20.13,20.13,0,0,1,6.52-2.11,30.18,30.18,0,0,1,6.39-.38,49.17,49.17,0,0,1,6.12.58,89.22,89.22,0,0,1,11.65,2.67,54,54,0,0,1,11,4.37l-.55.79h0a30,30,0,0,1-5.31-2.79,42.25,42.25,0,0,1-4.65-3.47,46.6,46.6,0,0,1-7.78-8.5,41,41,0,0,1-5.56-10.74,32.47,32.47,0,0,1-1.53-6.67,19,19,0,0,1,.78-8.36,11.89,11.89,0,0,1,1-2.3c.21-.39.44-.77.67-1.14s.53-.69.8-1a12.17,12.17,0,0,1,1.74-1.77,14.2,14.2,0,0,1,1.86-1.36,20.64,20.64,0,0,1,7.15-2.63,34.09,34.09,0,0,1,6.4-.49,54.29,54.29,0,0,1,5.94.48,65.47,65.47,0,0,1,11.11,2.67,57.56,57.56,0,0,1,10.34,4.54Z"/><path d="M1231.74,433.83a41.24,41.24,0,0,1,17.16-5.34,23.56,23.56,0,0,1,10,1.24c.44.16.87.33,1.3.52s.85.46,1.28.7a14.32,14.32,0,0,1,2.46,1.74,7.55,7.55,0,0,1,1.1,1.09c.35.39.69.79,1,1.2a22.64,22.64,0,0,1,1.56,2.69,18.2,18.2,0,0,1,1.49,5.67c.06.9.15,1.84.14,2.72l-.2,2.6a31.13,31.13,0,0,1-2.54,9.3c-.32.71-.66,1.41-1,2.1s-.78,1.31-1.17,2l-1.25,1.91c-.45.61-.92,1.2-1.41,1.78a28.76,28.76,0,0,1-6.87,6.18l-.5-.75h0a58.61,58.61,0,0,1,11.5-2,47.34,47.34,0,0,1,12,.41,28.8,28.8,0,0,1,6.12,1.72,18.25,18.25,0,0,1,5.85,3.77,14.13,14.13,0,0,1,3.76,6.59,16.17,16.17,0,0,1,.45,3.68c0,.3,0,.63,0,.89l0,.77-.1,1.54-.12,1.54-.22,1.51c-.16,1-.28,2-.48,3-.42,2-.83,3.92-1.4,5.81a80.11,80.11,0,0,1-4,11.06,92.17,92.17,0,0,1-5.39,10.34,70.28,70.28,0,0,1-6.75,9.5h0l-.72-.65c2.45-2,5-3.88,7.58-5.66a85.35,85.35,0,0,1,8.13-5,44.94,44.94,0,0,1,4.42-2.11,21.93,21.93,0,0,1,5.05-1.44,9.29,9.29,0,0,1,3.18.07,5.79,5.79,0,0,1,3.54,2.23,7.08,7.08,0,0,1,1.27,3.66,13.92,13.92,0,0,1-.16,3,25.56,25.56,0,0,1-.58,2.64c-.13.44-.32,1-.49,1.42s-.4.88-.6,1.32a28.63,28.63,0,0,1-2.92,4.46,59.27,59.27,0,0,1-6.82,7.2,158.12,158.12,0,0,1-15,12c-10.3,7.41-21,14.09-31.77,20.55s-21.73,12.63-32.78,18.6q-8.3,4.47-16.68,8.79c-5.63,2.84-11.21,5.64-17.12,8.32-.75.33-1.5.67-2.31,1s-1.68.64-2.52.94a22.58,22.58,0,0,1-2.61.81,26.24,26.24,0,0,1-2.68.67,32.37,32.37,0,0,1-11.58.48,27.5,27.5,0,0,1-11.39-4.34,30.35,30.35,0,0,1-8.28-8.41,43.66,43.66,0,0,1-4.9-9.81l-.46-1.25c-.15-.42-.3-.83-.41-1.2l-.72-2.27-1.36-4.55c-1.78-6.05-3.48-12.08-5.15-18.12s-3.22-12.11-4.8-18.16l-2.35-9.09-.58-2.27a7.54,7.54,0,0,1-.39-2.33c.13-1.65.93-3.49,3.77-5.87l1-.26c3.65.63,5.27,1.8,6.22,3.16a7.3,7.3,0,0,1,.84,2.19l.65,2.24,2.64,9,5.34,17.9c1.76,6,3.55,11.92,5.41,17.81l1.41,4.4.69,2.19c.12.38.24.71.35,1l.35,1a30.67,30.67,0,0,0,3.44,6.9,16.88,16.88,0,0,0,4.75,4.87,14.35,14.35,0,0,0,5.91,2.34,19.17,19.17,0,0,0,7-.24,16.55,16.55,0,0,0,1.86-.43,17.23,17.23,0,0,0,1.87-.56l1.88-.64,2-.81c5.54-2.34,11.2-5,16.78-7.63s11.19-5.34,16.75-8.1c22.22-11,44.26-22.68,65-36,5.13-3.37,10.24-6.77,14.94-10.53a66.86,66.86,0,0,0,6.55-5.89,22,22,0,0,0,2.52-3.15l.45-.77c.11-.25.23-.46.34-.76a15.74,15.74,0,0,0,.61-1.88,9.88,9.88,0,0,0,.28-1.64,4.06,4.06,0,0,0,0-.77c0-.06,0-.13-.28-.28a4.47,4.47,0,0,0-1.47-.18,16.81,16.81,0,0,0-4,.7c-1.41.38-2.84.86-4.26,1.39a146.07,146.07,0,0,0-16.75,8l-1.6.86.88-1.52h0c2.09-7.45,4.54-14.58,6.63-21.74.57-1.77,1-3.57,1.56-5.33s1-3.55,1.37-5.33a73.91,73.91,0,0,0,2-10.57l.13-1.3.07-.65c0-.21,0-.35,0-.53a9.72,9.72,0,0,0-.14-2,6.83,6.83,0,0,0-1.61-3.33c-1.72-2.06-4.84-3.57-8.15-4.63-6.75-2.07-14.36-2.77-21.94-3.2h0l-.51.39V471.4a49,49,0,0,1,1.18-8.88l.92-4,.52-2c.14-.64.29-1.28.46-1.91.68-2.53,1.26-4.93,1.65-7.21a13.39,13.39,0,0,0-.26-5.81c-.1-.4-.32-.69-.43-1.07-.26-.28-.39-.64-.67-.93a5.38,5.38,0,0,0-.9-.88c-.18-.13-.34-.29-.53-.42s-.43-.25-.64-.38a19.64,19.64,0,0,0-6.64-2.2,98.3,98.3,0,0,0-16.57-.91Z"/><path d="M528.38,564.43c2.09,1.83,2.74,3.36,2.92,4.79a6,6,0,0,1-.21,2l-.43,2q-.84,4-1.76,8c-1.21,5.32-2.53,10.61-3.92,15.89s-2.9,10.53-4.52,15.76-3.36,10.43-5.4,15.58l-.88-.43h0c3.88-6.06,8.14-11.82,12.46-17.55s8.88-11.27,13.68-16.66c1.19-1.35,2.4-2.69,3.65-4s2.5-2.64,3.81-3.93a73,73,0,0,1,8.5-7.36,38.55,38.55,0,0,1,5-3.16,25.12,25.12,0,0,1,3-1.29,14.5,14.5,0,0,1,3.63-.82,8.72,8.72,0,0,1,4.87.92A7.42,7.42,0,0,1,575,576a8.18,8.18,0,0,1,1.31,2.22,12.18,12.18,0,0,1,.82,3.94c0,.6,0,1.15,0,1.72s-.06,1.08-.12,1.6a36,36,0,0,1-1.17,5.86c-.25.93-.54,1.84-.82,2.72l-.85,2.59c-1.13,3.44-2.39,6.82-3.62,10.17s-2.5,6.65-3.62,9.94a46,46,0,0,0-2.49,9.52,9.77,9.77,0,0,0,0,1.94,2.85,2.85,0,0,0,.34,1.13.46.46,0,0,0,.11.16.53.53,0,0,0,.15.15.38.38,0,0,0,.14.11l.05.05s.08,0,.12,0A4.6,4.6,0,0,0,567,630a22.18,22.18,0,0,0,4.67-.86c1.62-.45,3.25-1,4.89-1.6a210.58,210.58,0,0,0,19.34-8.75l.54.84c-2.83,2.23-5.76,4.31-8.77,6.29a102.61,102.61,0,0,1-9.37,5.55,53,53,0,0,1-5.05,2.34,25.23,25.23,0,0,1-5.71,1.64,9.92,9.92,0,0,1-3.63-.06c-.17,0-.34-.06-.52-.12l-.56-.21a4.4,4.4,0,0,1-1-.52,4.79,4.79,0,0,1-.91-.66,5.11,5.11,0,0,1-.8-.81,8.48,8.48,0,0,1-1.76-3.73,15.12,15.12,0,0,1-.3-3.39,32.25,32.25,0,0,1,.74-5.91c.39-1.85.84-3.65,1.34-5.42,1-3.52,2.09-6.95,3.2-10.34s2.19-6.75,3.24-10.1l.76-2.52c.24-.82.47-1.61.66-2.41a32.17,32.17,0,0,0,.88-4.64c0-.36,0-.7.07-1.06s0-.67,0-1a4.16,4.16,0,0,0-.23-1.28c-.11-.22,0,0,.15.08s.08,0-.32,0a5.74,5.74,0,0,0-1.57.37,15.57,15.57,0,0,0-2,.83,34.58,34.58,0,0,0-4.08,2.44,80,80,0,0,0-7.9,6.36c-2.58,2.31-5.12,4.75-7.65,7.2-10.13,9.86-20,20.14-30.43,30h0l-1,1.67.07-2.09c.18-5.53.67-11,1.26-16.44s1.3-10.86,2.14-16.25,1.73-10.78,2.75-16.13c.49-2.68,1-5.36,1.56-8l.41-2a5.82,5.82,0,0,1,.62-2c.73-1.24,1.94-2.38,4.58-3.22Z"/><path d="M621.16,581.43a13.34,13.34,0,0,1,2.27,2.13,7.26,7.26,0,0,1,1.15,1.85,4.23,4.23,0,0,1,.14,3.13l-1.47,5.83c-1,3.89-2,7.76-3,11.63-2.07,7.74-4.23,15.47-6.53,23.16-.58,1.93-1.13,3.86-1.73,5.78l-.38,1.24c-.08.23-.1.37-.13.38s-.08-.19-.27-.42a1,1,0,0,0-.5-.37c-.08,0,0,.1.24.16a3.21,3.21,0,0,0,.84.16,12.87,12.87,0,0,0,2.39,0,40.33,40.33,0,0,0,5.49-.92c7.53-1.77,15.16-4.48,22.78-7.11l.47.88c-1.64,1.23-3.33,2.34-5,3.47s-3.46,2.15-5.23,3.19a93,93,0,0,1-11.07,5.55,43.19,43.19,0,0,1-6.19,2.06,20.15,20.15,0,0,1-3.6.55,12.32,12.32,0,0,1-2.16-.06,8.46,8.46,0,0,1-2.62-.74,6.9,6.9,0,0,1-2.73-2.34,7.21,7.21,0,0,1-1.18-3.25,9.78,9.78,0,0,1,0-2.62l.09-.57.07-.38.13-.74c.36-2,.77-4,1.15-5.94,1.55-7.91,3.24-15.79,5-23.65.91-3.93,1.79-7.86,2.75-11.78l1.42-5.88a4.21,4.21,0,0,1,1.58-2.71A7.38,7.38,0,0,1,617.2,582a12,12,0,0,1,3-.79Z"/><path d="M666.22,583.55c2.36,1.59,2.33,3,2.11,4.3l-.4,4-.85,8.1c-.61,5.4-1.23,10.79-2,16.18L664,624.25l-1.2,8.07c-.86,5.37-1.72,10.74-2.82,16.09l-.89-.35h0c2.66-4.64,5.53-9.12,8.47-13.55s6-8.79,9.15-13.08,6.42-8.5,9.84-12.64c.86-1,1.73-2.06,2.63-3.08s1.8-2,2.75-3a36.2,36.2,0,0,1,6.72-5.81,16.66,16.66,0,0,1,4.81-2.14,10.35,10.35,0,0,1,3.18-.32,8.72,8.72,0,0,1,3.52.91,9,9,0,0,1,2.81,2.2,11.35,11.35,0,0,1,1.69,2.61,16.51,16.51,0,0,1,1.4,5,28.36,28.36,0,0,1,.14,4.67c0,.76-.12,1.5-.2,2.16s-.15,1.37-.25,2c-.34,2.69-.79,5.32-1.23,8q-1.39,7.88-3.24,15.64c-1.25,5.17-2.6,10.33-4.3,15.43l-.93-.32h0c2.51-5.73,5.29-11.3,8.15-16.85s5.9-11,9.28-16.33q1.26-2,2.64-4c.93-1.35,1.89-2.58,2.85-3.82,1.91-2.5,3.9-5,6-7.34a60,60,0,0,1,7-6.92,22.29,22.29,0,0,1,2.18-1.59,11.61,11.61,0,0,1,2.93-1.38,5.13,5.13,0,0,1,1-.22,4.8,4.8,0,0,1,1.23-.06,5.22,5.22,0,0,1,1.45.28,4.88,4.88,0,0,1,1.41.75,5.8,5.8,0,0,1,1.71,2.12c.13.32.26.64.38,1a6.94,6.94,0,0,1,.22.87,18.85,18.85,0,0,1,.12,5.67c-.2,1.74-.44,3.2-.67,4.75l-1.4,9.18A103.74,103.74,0,0,0,751,636.71a22.9,22.9,0,0,0,1.69,8.13,13.2,13.2,0,0,0,.91,1.8c.09.14.17.3.25.43l.24.34a5.21,5.21,0,0,0,.52.61,4.63,4.63,0,0,0,3,1.22,11.08,11.08,0,0,0,4-.5,27,27,0,0,0,4.11-1.6,53.69,53.69,0,0,0,7.84-4.7l.67.74a42.17,42.17,0,0,1-7.22,6.21,26,26,0,0,1-4.31,2.37,14.08,14.08,0,0,1-5.1,1.28,8.39,8.39,0,0,1-6.78-2.77l-.5-.56c-.15-.19-.26-.36-.39-.54a16.77,16.77,0,0,1-1.43-2.22,26.52,26.52,0,0,1-2.87-9.8,58.09,58.09,0,0,1-.19-9.76c.15-3.19.51-6.33.86-9.44s.79-6.2,1.21-9.28c.21-1.52.45-3.13.59-4.47a14.77,14.77,0,0,0,0-3.61,2.61,2.61,0,0,0-.06-.26.2.2,0,0,1,0-.11s0,.1.29.31c.12,0,.23.17.39.2s.2.08.31.07.06,0,.08,0,0,0-.11,0a5.25,5.25,0,0,0-1.26.61c-.51.33-1,.7-1.59,1.13a60.76,60.76,0,0,0-6.38,6c-2.07,2.21-4.08,4.51-6.09,6.83-1,1.17-2,2.36-2.9,3.49s-1.86,2.37-2.75,3.61c-3.58,5-7.07,10.08-10.51,15.23s-6.91,10.31-10.47,15.42h0l-.9,2.57,0-2.89c-.12-10.71.65-21.29,1.41-31.8l.58-7.83c.05-.65.08-1.28.11-1.92s.06-1.24.08-1.8a17.92,17.92,0,0,0-.22-3.25,9.47,9.47,0,0,0-.74-2.58c-.33-.66-.65-.91-.76-.94s-.35-.15-1,0a8.44,8.44,0,0,0-2.4,1.09,28.9,28.9,0,0,0-5.36,4.43c-.9.89-1.81,1.79-2.7,2.73s-1.79,1.87-2.67,2.84c-3.58,3.79-7.1,7.71-10.66,11.6s-7.1,7.82-10.72,11.69-7.25,7.75-11,11.52h0l-.87,1.44,0-1.79c-.07-5.46.11-10.9.27-16.34l.35-8.15.46-8.13c.31-5.43.72-10.84,1.15-16.26l.7-8.11.37-4.06c0-1.36.26-2.7,2.89-3.81Z"/><path d="M840.49,596.63a.25.25,0,0,0,0,.22c.08.08,0,0,0,0l-.18-.06-.38-.12-.74-.24-1.49-.46-3-.91c-2-.58-3.9-1.15-5.83-1.62a54.32,54.32,0,0,0-11.25-1.83c-3.57-.08-6.85.45-9.25,2a11.85,11.85,0,0,0-3.19,3,17.14,17.14,0,0,0-2.19,4.41c-.13.41-.31.8-.42,1.24l-.32,1.31c-.23.81-.44,1.88-.65,2.87l-1.26,6q-1.24,6-2.38,12.05c-1.53,8-3,16.08-3.69,24-.17,2-.28,3.94-.29,5.84,0,1,0,1.87.1,2.75a12.41,12.41,0,0,0,.36,2.28,3.69,3.69,0,0,0,.2.57c0,.07-.08-.12-.45-.27a1.09,1.09,0,0,0-.73-.09,1,1,0,0,0,.42-.16,9.37,9.37,0,0,0,.85-.56l.48-.37.5-.48c.67-.65,1.35-1.25,2-1.93,2.65-2.87,5.22-6,7.68-9.22l1.87-2.41,1.83-2.46c1.22-1.63,2.42-3.29,3.61-5,4.73-6.69,9.43-13.44,14-20.28l6.88-10.26,3.44-5.15,1.71-2.58.85-1.28.43-.65C840.22,596.74,840.3,596.75,840.49,596.63Zm1-.23a4.08,4.08,0,0,1-.4,1.06l-.34.7-.69,1.38-1.42,2.76c-.94,1.84-1.88,3.68-2.86,5.5-1.94,3.64-3.89,7.29-5.9,10.9-4.05,7.21-8.15,14.39-12.57,21.42s-8.87,14-14.48,20.61c-.74.83-1.56,1.64-2.34,2.45l-.59.61-.71.62a13.88,13.88,0,0,1-1.69,1.2,8.19,8.19,0,0,1-2.42,1,6,6,0,0,1-3.76-.31,6.36,6.36,0,0,1-2.68-2.34,9.82,9.82,0,0,1-1.08-2.24,19.79,19.79,0,0,1-.82-3.77,34.22,34.22,0,0,1-.25-3.42c-.05-2.23,0-4.38.14-6.52.55-8.51,1.79-16.73,3.14-24.94.7-4.1,1.46-8.17,2.24-12.24l1.2-6.09c.21-1,.38-2,.69-3.16l.42-1.69c.14-.56.37-1.13.55-1.69a26.25,26.25,0,0,1,3.3-6.62,19.76,19.76,0,0,1,5.74-5.4c.59-.32,1.16-.68,1.77-1l1.83-.75a21.24,21.24,0,0,1,3.76-.86,25.51,25.51,0,0,1,7.26.09,38.31,38.31,0,0,1,12.55,4.54,48,48,0,0,1,5.41,3.55c.85.64,1.68,1.32,2.48,2,.41.35.8.73,1.18,1.1l.57.57.28.29.14.15.14.13A.89.89,0,0,1,841.46,596.4Z"/><path d="M845.06,658.2a11.79,11.79,0,0,1-8.67-3.23,18.64,18.64,0,0,1-5.08-8.19,18.3,18.3,0,0,1-.66-2.3l-.44-2.38c-.16-1.5-.36-3.07-.38-4.53l-.08-2.22,0-2.19c0-1.46.06-2.91.17-4.34a153.19,153.19,0,0,1,2.09-17l.79-4.18a22.72,22.72,0,0,1,1-4.11,13.1,13.1,0,0,1,2.31-3.83,13.59,13.59,0,0,1,4.32-3.32l1,.24a14.55,14.55,0,0,1,2.42,4.83,13.3,13.3,0,0,1,.51,4.35,23.08,23.08,0,0,1-.69,4.07l-.83,4c-1.16,5.37-2.24,10.75-3.28,16.06-.24,1.34-.52,2.67-.72,4s-.43,2.64-.62,3.94c-.11.66-.2,1.31-.24,1.93s-.14,1.27-.21,1.91a31.05,31.05,0,0,0,0,3.61,16.27,16.27,0,0,0,1.85,6.86,11.27,11.27,0,0,0,5.48,5Z"/><path d="M872.21,566.57a15.12,15.12,0,0,1,3.73,4.62,10.86,10.86,0,0,1,1.2,4.23,20.8,20.8,0,0,1-.36,4l-.53,4-2,16c-1.26,10.64-2.48,21.29-3.18,31.83a134.94,134.94,0,0,0-.32,15.5l.14,1.82c0,.62.15,1.15.21,1.73s.21,1,.29,1.58a3.92,3.92,0,0,0,.19.67c.07.2.12.43.19.61a4.59,4.59,0,0,0,.84,1.42,2.09,2.09,0,0,0,1.58.52,9.26,9.26,0,0,0,2.93-.45,21.35,21.35,0,0,0,3.33-1.3,54,54,0,0,0,6.68-3.86,142.89,142.89,0,0,0,12.79-9.77l.75.66a86.38,86.38,0,0,1-10.52,12.79,52.8,52.8,0,0,1-6.51,5.57,28.92,28.92,0,0,1-3.93,2.34,15.62,15.62,0,0,1-4.89,1.57,11.66,11.66,0,0,1-3,0c-.55-.1-1.09-.22-1.64-.35a14.44,14.44,0,0,1-1.59-.66,11.64,11.64,0,0,1-4.55-4.5c-.24-.42-.42-.82-.62-1.24a11.31,11.31,0,0,1-.54-1.23c-.25-.77-.6-1.61-.77-2.34-.43-1.52-.74-3-1-4.45-.48-2.89-.78-5.72-1-8.54s-.31-5.61-.36-8.38A313,313,0,0,1,861.08,598l.77-8.16.94-8.14.5-4.06a20.53,20.53,0,0,1,.72-4,10.69,10.69,0,0,1,2.31-3.81,14.41,14.41,0,0,1,4.9-3.41Z"/><path d="M914.75,652.45a7.82,7.82,0,0,1,1-1.69,5.14,5.14,0,0,1,1-1,3.31,3.31,0,0,1,2-.72c1.35-.13,2.69-.27,4-.37,2.69-.21,5.38-.39,8.07-.38s5.38.1,8.07.34c1.34.13,2.69.23,4,.39l2,.23c.34.06.67-.05,1,.4a2.21,2.21,0,0,1,.25.42,3,3,0,0,1,.26.56c0,.12.08.21.12.35l.13.46a10.48,10.48,0,0,1,.25,1v1c-.08.45-.17.73-.25,1l-.13.45c0,.14-.08.23-.12.35a3,3,0,0,1-.26.56,2.21,2.21,0,0,1-.25.42c-.34.45-.67.34-1,.4l-2,.23c-1.34.16-2.69.26-4,.39q-4,.36-8.07.34c-2.69,0-5.38-.17-8.07-.38-1.35-.1-2.69-.24-4-.37a3.31,3.31,0,0,1-2-.72,5.14,5.14,0,0,1-1-1,7.82,7.82,0,0,1-1-1.69Z"/><path d="M971.4,653.68c-2.2-7-4.09-14.12-6-21.21l-2.73-10.66-2.59-10.69c-1.73-7.13-3.33-14.28-4.9-21.44l-2.29-10.76-1.12-5.38a5.53,5.53,0,0,1,.08-2.82,7.19,7.19,0,0,1,1.91-3.2l1-.2a7.38,7.38,0,0,1,3,2.19,5.63,5.63,0,0,1,1.18,2.56l1.08,5.39,2.12,10.79c1.38,7.2,2.71,14.41,3.93,21.64l1.82,10.85,1.68,10.88c1,7.27,2.08,14.53,2.82,21.86Z"/><path d="M1022,556.93a15.15,15.15,0,0,1,3.77.8,4.08,4.08,0,0,1,1.77,1.12,2.36,2.36,0,0,1,.46,1.34l.21,1.37.84,5.48c.57,3.66,1,7.33,1.57,11,1,7.33,1.89,14.68,2.64,22.05s1.42,14.76,1.89,22.17.82,14.85.77,22.35l-1,.16c-2.37-7.12-4.33-14.3-6.19-21.49s-3.51-14.42-5.07-21.67-3-14.51-4.32-21.78c-.63-3.65-1.33-7.28-1.91-10.93l-.9-5.48-.23-1.37a2.34,2.34,0,0,1,0-1.41,4,4,0,0,1,1.34-1.61,15.16,15.16,0,0,1,3.34-1.94Z"/><path d="M958.77,610c2.57-5.72,6.18-6.86,9.91-7.58s7.36-1.77,11.06-2.59,7.4-1.66,11.11-2.44c1.85-.41,3.71-.78,5.57-1.16l5.46-1.19c7.28-1.67,14.59-3.49,21.91-5.4s14.67-3.84,22.13-5.65l.39.92a186.86,186.86,0,0,1-20.41,10.69,214.84,214.84,0,0,1-21.52,8.44c-1.83.62-3.71,1.17-5.55,1.73s-3.66,1.06-5.5,1.55q-5.51,1.54-11,3c-3.68,1-7.38,1.9-11.07,2.83-3.65,1.09-7.42,1.75-12.23-2.16Z"/><path d="M1102.39,558.24c-4.13-.29-8-.73-11.79-.94a47.68,47.68,0,0,0-10.47.29,20.53,20.53,0,0,0-2.18.52,15.18,15.18,0,0,0-1.85.73,7.53,7.53,0,0,0-2.69,2.18,9.82,9.82,0,0,0-1.61,3.54,26,26,0,0,0-.65,5c-.6,7.8-1.09,15.62-1.38,23.43q-.26,5.87-.31,11.7c0,3.88,0,7.77.12,11.58l.16,2.83c.09.9.14,1.86.26,2.72a12,12,0,0,0,.9,4c.08.18.15.22.14.25s-.09,0-.2-.05-.2,0-.19,0a1,1,0,0,0,.33-.07,5.54,5.54,0,0,0,1.51-.91,14.42,14.42,0,0,0,1.75-1.62,52,52,0,0,0,6.34-9c1.93-3.28,3.64-6.74,5.3-10.26,3.23-7.08,6.31-14.32,9.12-21.67s5.63-14.74,8.34-22.17h0l-.5-1.3,1.47,1.33a19.62,19.62,0,0,1,3.1,3.68,29.67,29.67,0,0,1,2.15,3.87,36,36,0,0,1,2.5,8.13c1.24,5.5,2.33,11,3.35,16.54.5,2.74,1,5.53,1.56,8.07.07.33.15.59.22.89a3,3,0,0,0,.25.77l.86,1.76,1,1.72,1.08,1.67A46,46,0,0,0,1132,619.06l-.42.91a35.37,35.37,0,0,1-7.89-3.85,38,38,0,0,1-7-5.62l-1.53-1.68-1.44-1.79-1.31-1.9c-.2-.28-.5-.77-.72-1.13s-.42-.74-.58-1.08c-.72-1.4-1.32-2.75-1.88-4.12s-1.06-2.72-1.56-4.09a157.75,157.75,0,0,1-4.81-16.52,34,34,0,0,1-1.25-8.49,27.05,27.05,0,0,1,.34-4.44,18.77,18.77,0,0,1,1.31-4.65l1,0h0c-1.56,7.79-3.47,15.48-5.55,23.15s-4.43,15.28-7.28,22.78c-1.44,3.75-3,7.51-4.77,11.19-.9,1.84-1.86,3.67-3,5.47a42,42,0,0,1-3.75,5.29,21.64,21.64,0,0,1-2.46,2.54,13.51,13.51,0,0,1-3.45,2.28,9.14,9.14,0,0,1-2.52.71,7.5,7.5,0,0,1-5.88-1.74,9.43,9.43,0,0,1-1.76-2,13.35,13.35,0,0,1-1.73-3.89l-.42-1.73-.3-1.63c-.37-2.14-.56-4.19-.74-6.24-.65-8.13-.69-16.11-.59-24.1s.48-16,1-23.9a35.43,35.43,0,0,1,.9-6.74,19.86,19.86,0,0,1,3.31-7.15,16.59,16.59,0,0,1,6.46-5.17,16.8,16.8,0,0,1,3.73-1.23,19.52,19.52,0,0,1,3.66-.47,30.66,30.66,0,0,1,13,2.52,34.1,34.1,0,0,1,10.59,6.76Z"/><path d="M1120.21,560.73a20.83,20.83,0,0,1,.21-5.36,3.28,3.28,0,0,1,1.08-2.16,2.32,2.32,0,0,1,.76-.28l.78-.21,1.56-.42c2.09-.53,4.19-1,6.29-1.53,4.22-.95,8.46-1.78,12.76-2.41s8.64-1.15,13-1.43a88.74,88.74,0,0,1,13.44,0l.26,1a88.36,88.36,0,0,1-11.51,6.91q-5.88,3-11.93,5.45c-4,1.66-8.09,3.12-12.19,4.46-2,.68-4.12,1.3-6.19,1.91l-1.55.44-.78.22a2.37,2.37,0,0,1-.8.16,3.33,3.33,0,0,1-2-1.31,20.28,20.28,0,0,1-2.92-4.49Z"/><path d="M423.84,561a17,17,0,0,1,3.6-.68,11.72,11.72,0,0,1,2.81.08,9.38,9.38,0,0,1,2.36.7c.71.35,1.4.78,2.1,1.17,2.79,1.6,5.75,3,8.73,4.46q2.25,1,4.54,2l2.28,1,2.18.84c.72.29,1.45.57,2.23.8l2.28.76c1.55.47,3.13.88,4.71,1.31,6.39,1.63,13,2.89,19.73,4s13.49,2.17,20.33,3.33l0,1c-3.44.64-6.9,1.1-10.37,1.41s-6.95.52-10.45.58a129.23,129.23,0,0,1-21.09-1.17,75.64,75.64,0,0,1-10.69-2.35l-2.67-.85-2.5-.91c-1.65-.63-3.29-1.3-4.93-2a100.51,100.51,0,0,1-9.7-4.7,22.62,22.62,0,0,1-2.36-1.41,9.63,9.63,0,0,1-2-2,10.07,10.07,0,0,1-1.42-2.84,9.31,9.31,0,0,1-.41-3.91Z"/><path d="M641.07,550.12a10.45,10.45,0,0,1-.88,2.93,10.85,10.85,0,0,1-1.34,2.18,11.7,11.7,0,0,1-3.56,3c-2.6,1.62-5.28,3.11-8,4.54s-5.52,2.72-8.39,3.9a61,61,0,0,1-9,3l-.53-.84A60.57,60.57,0,0,1,616,562c2.31-2.07,4.71-4,7.17-5.84s5-3.58,7.58-5.21A11.76,11.76,0,0,1,635,549a10.94,10.94,0,0,1,2.55-.24,10.31,10.31,0,0,1,3,.48Z"/><path d="M537.3,292.38a127.9,127.9,0,0,0,14.24,17.85,86.52,86.52,0,0,0,16.34,13.41c11.58,7.24,24.52,10.71,38.35,11,1.73,0,3.5,0,5.24,0s3.49-.14,5.22-.28A88.91,88.91,0,0,0,627,333a82,82,0,0,0,10.07-2.55c1.66-.52,3.31-1.08,4.93-1.72s3.24-1.34,4.85-2.05a98.2,98.2,0,0,0,34.51-27.36l.92.38a50.14,50.14,0,0,1-3.89,11.52,61.14,61.14,0,0,1-2.84,5.44c-1,1.78-2.14,3.52-3.33,5.21a73.65,73.65,0,0,1-17.74,17.75,79.35,79.35,0,0,1-11.05,6.52,84.48,84.48,0,0,1-12,4.6,90.21,90.21,0,0,1-25.32,3.62,85.91,85.91,0,0,1-13-.92,73.3,73.3,0,0,1-12.81-3.16,65.9,65.9,0,0,1-22.66-13.37,66.65,66.65,0,0,1-15.24-20.46,65.26,65.26,0,0,1-4.32-11.66,48,48,0,0,1-1.74-12.15Z"/><path d="M929.3,302.38c9,13.53,20.06,24,32.42,30.37s26,8.65,40.24,8.32a87.35,87.35,0,0,0,20.57-2.92,81.49,81.49,0,0,0,19.36-8A99.11,99.11,0,0,0,1059.67,317a136,136,0,0,0,15.94-17.3l.94.35a53.78,53.78,0,0,1-3,12.18,74.35,74.35,0,0,1-5.28,11.53,77.52,77.52,0,0,1-16.37,20.12A76,76,0,0,1,1029,357.65a83,83,0,0,1-26.34,5.2,85.92,85.92,0,0,1-26.56-3.08,69.45,69.45,0,0,1-24.16-12.32,64.7,64.7,0,0,1-16.88-20.37q-1.5-2.9-2.72-5.88a63.65,63.65,0,0,1-2.07-6.06,45.75,45.75,0,0,1-1.92-12.5Z"/><path d="M732.9,429.86a74.88,74.88,0,0,0,6.77,15,41.29,41.29,0,0,0,9.86,11.4,31.16,31.16,0,0,0,6.09,3.62,30.7,30.7,0,0,0,6.71,2.21,46.3,46.3,0,0,0,28.85-3.34,63.61,63.61,0,0,0,13.06-8.25c2-1.67,4-3.45,6-5.32s3.81-3.87,5.65-5.92a146.74,146.74,0,0,0,10.38-13.19h0l.23-1.53.73,1.64a106.28,106.28,0,0,0,7.86,14.56A57.58,57.58,0,0,0,845,452.62a41,41,0,0,0,5.79,4.31,36.4,36.4,0,0,0,6.3,2.89l1.64.51c.55.15,1.12.24,1.68.39l.83.2.85.14c.58.08,1.13.2,1.71.26,1.17.08,2.31.23,3.5.22.6,0,1.15,0,1.79,0l2-.08a86.11,86.11,0,0,0,15.21-1.6A43.25,43.25,0,0,0,899.79,455a45.69,45.69,0,0,0,11.33-9.82c1.75-2,3.4-4.2,5.09-6.43s3.34-4.55,5.11-6.84l.92.39c-.2,1.44-.5,2.85-.76,4.28s-.64,2.82-1,4.22-.81,2.8-1.3,4.2l-.78,2.08a18.4,18.4,0,0,1-.87,2.06,41.49,41.49,0,0,1-11,15c-.3.26-.6.54-.92.79l-1,.72c-.66.48-1.32.93-2,1.4a18.36,18.36,0,0,1-2.07,1.25l-2.13,1.17a50.3,50.3,0,0,1-8.89,3.39c-.75.2-1.51.46-2.27.62l-2.27.45a37.84,37.84,0,0,1-4.55.75l-4.53.47c-1.5.1-3,.09-4.49.14l-2.24,0c-.77,0-1.62-.06-2.42-.09a40.94,40.94,0,0,1-14.38-3.36,40.24,40.24,0,0,1-8.47-5.08,43.29,43.29,0,0,1-6.79-6.81,50.11,50.11,0,0,1-8.4-16.21,51.89,51.89,0,0,1-2.44-17.38l1,.11h0a64.74,64.74,0,0,1-6.2,16.34,71.13,71.13,0,0,1-10.22,14.6,67.27,67.27,0,0,1-6.65,6.29,60.29,60.29,0,0,1-7.7,5.24c-.69.39-1.4.73-2.1,1.1s-1.4.72-2.13,1L790,472l-2.26.79-1.12.39-1.16.32-2.31.63c-.78.17-1.56.32-2.35.47a23.35,23.35,0,0,1-2.37.36l-2.38.27c-.79.09-1.59.09-2.38.14s-1.6.1-2.39.05l-2.38-.09c-.79,0-1.58-.11-2.38-.2s-1.6-.17-2.39-.28a43.54,43.54,0,0,1-4.76-1.06A36.73,36.73,0,0,1,742.52,464a39.19,39.19,0,0,1-9.25-16.32,44.63,44.63,0,0,1-1.63-8.87,37,37,0,0,1,.27-8.86Z"/></g></g></svg>